<svg id="레이어_1" data-name="레이어 1" xmlns="http://www.w3.org/2000/svg" xmlns:xlink="http://www.w3.org/1999/xlink" viewBox="0 0 492.6 248.6">
  <defs>
    <style>
      .cls-1, .cls-10, .cls-14 {
        fill: #fff;
      }

      .cls-1, .cls-10 {
        stroke: #231815;
      }

      .cls-1, .cls-10, .cls-13, .cls-2, .cls-4, .cls-5, .cls-6, .cls-7, .cls-9 {
        stroke-miterlimit: 10;
      }

      .cls-2 {
        fill: #ffd557;
        stroke: #ffd557;
      }

      .cls-10, .cls-12, .cls-13, .cls-2, .cls-4, .cls-5, .cls-6, .cls-7, .cls-9 {
        stroke-width: 8px;
      }

      .cls-3 {
        fill: #0f9749;
      }

      .cls-12, .cls-13, .cls-4, .cls-9 {
        fill: none;
        stroke-linecap: round;
      }

      .cls-4 {
        stroke: #8a603c;
      }

      .cls-5 {
        fill: #6a4126;
      }

      .cls-5, .cls-9 {
        stroke: #6a4126;
      }

      .cls-6 {
        fill: #f89520;
        stroke: #f89520;
      }

      .cls-7 {
        fill: #d5792b;
        stroke: #d5792b;
      }

      .cls-8 {
        fill: #ec2029;
      }

      .cls-11 {
        fill: url(#무제_그라디언트_68);
      }

      .cls-12 {
        stroke-linejoin: round;
        stroke: url(#무제_그라디언트_68-2);
      }

      .cls-13 {
        stroke: url(#무제_그라디언트_68-3);
      }
    </style>
    <linearGradient id="무제_그라디언트_68" data-name="무제 그라디언트 68" x1="117.29" y1="506.41" x2="450.52" y2="506.41" gradientUnits="userSpaceOnUse">
      <stop offset="0" stop-color="#8dc21f"/>
      <stop offset="0" stop-color="#ada224"/>
      <stop offset="0" stop-color="#c78728"/>
      <stop offset="0" stop-color="#da742b"/>
      <stop offset="0" stop-color="#e5692c"/>
      <stop offset="0" stop-color="#e9652d"/>
      <stop offset="0" stop-color="#f0932e"/>
      <stop offset="0" stop-color="#508e47"/>
      <stop offset="0.68" stop-color="#508e47"/>
      <stop offset="0.75" stop-color="#4a8f47"/>
      <stop offset="0.85" stop-color="#399148"/>
      <stop offset="0.95" stop-color="#1e9549"/>
      <stop offset="1" stop-color="#0f9749"/>
    </linearGradient>
    <linearGradient id="무제_그라디언트_68-2" x1="37.32" y1="408.23" x2="119.18" y2="408.23" xlink:href="#무제_그라디언트_68"/>
    <linearGradient id="무제_그라디언트_68-3" x1="448.05" y1="408.11" x2="529.92" y2="408.11" xlink:href="#무제_그라디언트_68"/>
  </defs>
  <path class="cls-1" d="M70.86,345.05" transform="translate(-37.32 -327.72)"/>
  <g id="옥수수">
    <ellipse class="cls-2" cx="397.65" cy="403.09" rx="69" ry="26.9" transform="translate(-160.2 298.2) rotate(-68.56)"/>
    <path class="cls-3" d="M340.17,474.21s.52-24.72,3.87-50.67,9.58-53.28,21-58.05c0,0,40.24,78.66,16.1,106.71" transform="translate(-37.32 -327.72)"/>
    <path class="cls-3" d="M392.25,494s64.19-75.39,50.18-99.84c0,0-88.27,27.9-85.41,67.16" transform="translate(-37.32 -327.72)"/>
  </g>
  <g id="호박">
    <path class="cls-4" d="M212.38,331.72s-22.8,11.85-23.19,37.26" transform="translate(-37.32 -327.72)"/>
    <ellipse class="cls-5" cx="191.08" cy="366.64" rx="32.06" ry="8.77" transform="translate(-94.85 -291.43) rotate(-9.44)"/>
    <g>
      <ellipse class="cls-6" cx="154.57" cy="425.7" rx="26.7" ry="47.73" transform="translate(-105.03 -296.62) rotate(-9.44)"/>
      <ellipse class="cls-6" cx="244.24" cy="410.8" rx="26.7" ry="47.73" transform="translate(-101.37 -282.11) rotate(-9.44)"/>
      <ellipse class="cls-7" cx="197.16" cy="418.62" rx="43.18" ry="52.27" transform="translate(-103.29 -289.73) rotate(-9.44)"/>
    </g>
  </g>
  <g id="사과">
    <ellipse class="cls-8" cx="298.85" cy="423.54" rx="47.3" ry="51.4" transform="translate(-208.32 314.77) rotate(-79.78)"/>
    <path class="cls-3" d="M262.6,361.06s26.14-6.94,33.17,19.37S262.6,361.06,262.6,361.06Z" transform="translate(-37.32 -327.72)"/>
    <path class="cls-9" d="M315.6,345.25s-21.47,22.63-9.35,42.08" transform="translate(-37.32 -327.72)"/>
  </g>
  <path class="cls-10" d="M107.23,436" transform="translate(-37.32 -327.72)"/>
  <path class="cls-11" d="M127.55,436.51H440.26a10.26,10.26,0,0,1,10.26,10.26V550.82c0,12.83-10.18,23.28-22.54,25.37a10.23,10.23,0,0,1-1.66.13H142.21a9.15,9.15,0,0,1-1.57-.12c-13.12-2.05-23.35-12.52-23.35-25.38V446.77A10.27,10.27,0,0,1,127.55,436.51Z" transform="translate(-37.32 -327.72)"/>
  <path class="cls-12" d="M41.32,384.94s64.77,5.68,73.86,46.59" transform="translate(-37.32 -327.72)"/>
  <path class="cls-13" d="M525.92,384.82s-64.78,5.68-73.87,46.59" transform="translate(-37.32 -327.72)"/>
  <path class="cls-10" d="M158.87,143.67" transform="translate(-37.32 -327.72)"/>
  <g>
    <path class="cls-14" d="M151,478.64a1.56,1.56,0,0,1-1.53-.77,4.5,4.5,0,0,1-.73-2.1,4.72,4.72,0,0,1,.27-2.13,1.55,1.55,0,0,1,1.32-1.15l36.09-3.92a1.57,1.57,0,0,1,1.53.85,4.8,4.8,0,0,1,.46,4.23,1.56,1.56,0,0,1-1.33,1.07Zm18.26,21.12,4.51-.49L172,483.66a5,5,0,0,1,.33-2.52,5.63,5.63,0,0,1,1.4-2,7.42,7.42,0,0,1,2.16-1.36,9.1,9.1,0,0,1,2.58-.67,8.58,8.58,0,0,1,2.57.11,7.32,7.32,0,0,1,2.37.87,5.7,5.7,0,0,1,1.79,1.63,5.12,5.12,0,0,1,.86,2.4l.65,5.92c.46,4.25-.23,7.6-2.07,10l5.5-.59a1.56,1.56,0,0,1,1.54.84,4.73,4.73,0,0,1,.72,2,4.55,4.55,0,0,1-.26,2.21,1.58,1.58,0,0,1-1.33,1.08l-36.75,4a1.56,1.56,0,0,1-1.52-.76,4.5,4.5,0,0,1-.73-2.1,4.59,4.59,0,0,1,.27-2.13,1.58,1.58,0,0,1,1.32-1.16l4.77-.52q-3.41-3-4.1-9.35l-.64-5.92a5.06,5.06,0,0,1,.33-2.53,5.6,5.6,0,0,1,1.39-2,7.54,7.54,0,0,1,2.11-1.35,8.16,8.16,0,0,1,2.51-.66,8.82,8.82,0,0,1,2.66.1,7.51,7.51,0,0,1,2.41.86,5.73,5.73,0,0,1,1.79,1.64,5,5,0,0,1,.86,2.39ZM175.47,540q-7.31.79-11.09-2.34t-4.52-9.74l-1-9.22a5.24,5.24,0,0,1,.32-2.6,5.63,5.63,0,0,1,1.4-2,7.53,7.53,0,0,1,2.13-1.36,9,9,0,0,1,2.55-.67l37-4a9.57,9.57,0,0,1,2.73.09,7.52,7.52,0,0,1,2.41.87,5.69,5.69,0,0,1,1.79,1.63,5.08,5.08,0,0,1,.86,2.4l1.84,17a5.45,5.45,0,0,1-.31,2.64,5.52,5.52,0,0,1-1.4,2,7.42,7.42,0,0,1-2.16,1.36,9.48,9.48,0,0,1-2.65.68Zm-.67-6.15,22.95-2.49L196,515,173,517.47Zm31.8-52.69,5.7-.62a1.57,1.57,0,0,1,1.54.85,4.68,4.68,0,0,1,.72,2,4.51,4.51,0,0,1-.26,2.2,1.57,1.57,0,0,1-1.33,1.08l-5.7.62,1.18,10.92a5.13,5.13,0,0,1-.32,2.6,5.63,5.63,0,0,1-1.4,2,7.42,7.42,0,0,1-2.16,1.36,9.48,9.48,0,0,1-2.65.68,8.62,8.62,0,0,1-2.59-.11,7.8,7.8,0,0,1-2.35-.87,5.73,5.73,0,0,1-1.79-1.64,5.24,5.24,0,0,1-.87-2.47l-2.93-27.06a5.12,5.12,0,0,1,.32-2.6,5.6,5.6,0,0,1,1.39-2,7.09,7.09,0,0,1,2.11-1.32,9.13,9.13,0,0,1,2.52-.62,10.3,10.3,0,0,1,2.72.05,6.82,6.82,0,0,1,2.41.83,5.55,5.55,0,0,1,1.78,1.63,5.21,5.21,0,0,1,.88,2.47Z" transform="translate(-37.32 -327.72)"/>
    <path class="cls-14" d="M231.3,506.41q0-6.5,2.61-10.22a8.39,8.39,0,0,1,7.25-3.73,8.64,8.64,0,0,1,7.24,3.73,13.71,13.71,0,0,1,2,4.4,22.21,22.21,0,0,1,.7,5.82,22,22,0,0,1-.7,5.79,13.84,13.84,0,0,1-2,4.37,8.64,8.64,0,0,1-7.24,3.73,8.41,8.41,0,0,1-7.25-3.7Q231.3,512.9,231.3,506.41Zm13.56,30.89H271a1.08,1.08,0,0,1,1,.69,3.26,3.26,0,0,1,.35,1.45,3.13,3.13,0,0,1-.35,1.5,1.09,1.09,0,0,1-1,.65H244.86q-5.33,0-7.78-2.52t-2.45-7.35v-4.83a3.86,3.86,0,0,1,.44-1.87,3.8,3.8,0,0,1,1.16-1.32,5.53,5.53,0,0,1,1.62-.78,6.81,6.81,0,0,1,1.87-.26,7.14,7.14,0,0,1,1.9.26,5.41,5.41,0,0,1,1.64.78,3.9,3.9,0,0,1,1.16,1.32,3.86,3.86,0,0,1,.44,1.87Zm-5.23-30.89a41.28,41.28,0,0,0,.48,7.48c.33,1.55.68,2.33,1,2.33s.77-.78,1.11-2.33a39.75,39.75,0,0,0,.51-7.48,41.53,41.53,0,0,0-.49-7.54c-.32-1.55-.7-2.33-1.13-2.33s-.72.78-1,2.33A41.75,41.75,0,0,0,239.63,506.41ZM261,507.64h1.81v-11.8a3,3,0,0,1,1.29-2.57,4.73,4.73,0,0,1,1.35-.67,4.88,4.88,0,0,1,1.52-.24,5.25,5.25,0,0,1,3,.88,2.93,2.93,0,0,1,1.31,2.6v28.53A3,3,0,0,1,270,527a5.13,5.13,0,0,1-3,.91,4.88,4.88,0,0,1-1.52-.24,4.73,4.73,0,0,1-1.35-.67,3,3,0,0,1-.94-1.1,3.17,3.17,0,0,1-.35-1.53V511.93H261v12.23a2.93,2.93,0,0,1-.37,1.5,3.69,3.69,0,0,1-.94,1.1,3.89,3.89,0,0,1-1.35.67,6,6,0,0,1-1.59.21,5.54,5.54,0,0,1-1.53-.21,3.92,3.92,0,0,1-1.32-.67,3.49,3.49,0,0,1-.92-1.1,3.13,3.13,0,0,1-.35-1.5V495.79a2.91,2.91,0,0,1,1.27-2.55,4.88,4.88,0,0,1,2.85-.88,6,6,0,0,1,1.59.21,3.89,3.89,0,0,1,1.35.67,3.82,3.82,0,0,1,.94,1.1,2.82,2.82,0,0,1,.37,1.45Z" transform="translate(-37.32 -327.72)"/>
    <path class="cls-14" d="M290.22,476a1.54,1.54,0,0,1-1.51-.77,4.48,4.48,0,0,1-.71-2.1,4.67,4.67,0,0,1,.29-2.11,1.59,1.59,0,0,1,1.32-1.14l35.9-3.55a1.56,1.56,0,0,1,1.51.85,4.61,4.61,0,0,1,.7,2,4.34,4.34,0,0,1-.28,2.19,1.54,1.54,0,0,1-1.33,1.06Zm17.95,21.16,4.49-.44-1.54-15.53a5,5,0,0,1,.35-2.5,5.62,5.62,0,0,1,1.41-2,7.27,7.27,0,0,1,2.17-1.33,9.16,9.16,0,0,1,2.56-.64,8.79,8.79,0,0,1,2.55.13,7.63,7.63,0,0,1,2.35.89,5.53,5.53,0,0,1,1.76,1.64,5,5,0,0,1,.84,2.39l.58,5.89q.63,6.35-2.14,9.94l5.47-.54a1.55,1.55,0,0,1,1.52.85,4.57,4.57,0,0,1,.7,2,4.45,4.45,0,0,1-.28,2.19,1.57,1.57,0,0,1-1.33,1.06l-36.56,3.62a1.56,1.56,0,0,1-1.51-.78,4.47,4.47,0,0,1-.7-2.09,4.56,4.56,0,0,1,.29-2.12,1.54,1.54,0,0,1,1.32-1.13l4.75-.47q-3.36-3-4-9.34l-.58-5.89a4.93,4.93,0,0,1,.35-2.5,5.47,5.47,0,0,1,1.4-2,7.72,7.72,0,0,1,2.1-1.33,8.81,8.81,0,0,1,2.51-.63,9,9,0,0,1,2.64.13,7.42,7.42,0,0,1,2.39.88,5.52,5.52,0,0,1,1.76,1.64,5,5,0,0,1,.83,2.39ZM314,537.22q-7.26.72-11-2.42t-4.39-9.73l-.91-9.17a5.2,5.2,0,0,1,.34-2.59,5.67,5.67,0,0,1,1.41-1.95,7.45,7.45,0,0,1,2.13-1.33,8.86,8.86,0,0,1,2.54-.64l36.82-3.64a9.44,9.44,0,0,1,2.71.11,7.53,7.53,0,0,1,2.38.89,5.42,5.42,0,0,1,1.76,1.64,4.92,4.92,0,0,1,.84,2.39l1.67,16.9a5.24,5.24,0,0,1-.34,2.62,5.41,5.41,0,0,1-1.4,2,7.37,7.37,0,0,1-2.16,1.34,9.44,9.44,0,0,1-2.64.64Zm-.6-6.12,22.83-2.26-1.62-16.29-22.83,2.26ZM345.49,479l5.67-.56a1.55,1.55,0,0,1,1.52.85,4.75,4.75,0,0,1,.42,4.21,1.56,1.56,0,0,1-1.33,1l-5.68.57L347.17,496a5.26,5.26,0,0,1-.34,2.58,5.67,5.67,0,0,1-1.41,1.95,7.29,7.29,0,0,1-2.17,1.34,9.29,9.29,0,0,1-2.63.64,8.24,8.24,0,0,1-2.58-.13,7.4,7.4,0,0,1-2.32-.89,5.52,5.52,0,0,1-1.76-1.64,5.12,5.12,0,0,1-.85-2.46l-2.66-26.92a5.2,5.2,0,0,1,.34-2.59A5.67,5.67,0,0,1,332.2,466a6.83,6.83,0,0,1,2.1-1.29,9.49,9.49,0,0,1,2.51-.6,10.65,10.65,0,0,1,2.71.08,6.89,6.89,0,0,1,2.38.85,5.63,5.63,0,0,1,1.76,1.64,5,5,0,0,1,.84,2.46Z" transform="translate(-37.32 -327.72)"/>
    <path class="cls-14" d="M358.06,529.16a1.59,1.59,0,0,1-1.4-1,4.57,4.57,0,0,1-.36-2.22,4.62,4.62,0,0,1,.63-2.09,1.6,1.6,0,0,1,1.52-.93l58.91,3.68a1.58,1.58,0,0,1,1.39,1.11,4.69,4.69,0,0,1,.38,2.14,4.47,4.47,0,0,1-.65,2.16,1.57,1.57,0,0,1-1.51.85Zm38.75-50.34a23.55,23.55,0,0,1-.49,3.51,27.61,27.61,0,0,1-1,3.32,53.14,53.14,0,0,1,11.45,2.45,25.22,25.22,0,0,1,7.06,3.62,11.2,11.2,0,0,1,3.51,4.19,9.18,9.18,0,0,1,.82,4.22,10.87,10.87,0,0,1-.92,3.79,9.93,9.93,0,0,1-2,3,8.48,8.48,0,0,1-2.86,1.94,7.55,7.55,0,0,1-3.46.57q-3.39-.21-6.93-5.26T394.41,488a25.71,25.71,0,0,1-5.53,7.6,33.25,33.25,0,0,1-7.81,5.52,37.89,37.89,0,0,1-9.12,3.29,33.35,33.35,0,0,1-9.48.78,1.58,1.58,0,0,1-1.39-1.07,4.67,4.67,0,0,1-.37-2.18,4.6,4.6,0,0,1,.64-2.08,1.57,1.57,0,0,1,1.51-.93,17,17,0,0,0,7.74-1.21,16.48,16.48,0,0,0,6-4.3,21.06,21.06,0,0,0,4-6.87,31.53,31.53,0,0,0,1.78-8.89l.47-7.6a5,5,0,0,1,.77-2.46,5.63,5.63,0,0,1,1.73-1.74,7.53,7.53,0,0,1,2.34-1,8.77,8.77,0,0,1,2.62-.23,9.75,9.75,0,0,1,2.71.56,8.19,8.19,0,0,1,2.3,1.29,5.57,5.57,0,0,1,1.54,1.94,5.06,5.06,0,0,1,.45,2.54Z" transform="translate(-37.32 -327.72)"/>
  </g>
</svg>
