<svg xmlns="http://www.w3.org/2000/svg" xmlns:xlink="http://www.w3.org/1999/xlink" viewBox="0 0 344.2 180.59">
  <defs>
    <style>
      .cls-1 {
        fill: #ffd557;
        stroke: #ffd557;
      }

      .cls-1, .cls-11, .cls-3, .cls-4, .cls-5, .cls-6, .cls-8 {
        stroke-miterlimit: 10;
      }

      .cls-1, .cls-10, .cls-11, .cls-3, .cls-4, .cls-5, .cls-6, .cls-8 {
        stroke-width: 8px;
      }

      .cls-2 {
        fill: #0f9749;
      }

      .cls-10, .cls-11, .cls-3, .cls-8 {
        fill: none;
        stroke-linecap: round;
      }

      .cls-3 {
        stroke: #8a603c;
      }

      .cls-4 {
        fill: #6a4126;
      }

      .cls-4, .cls-8 {
        stroke: #6a4126;
      }

      .cls-5 {
        fill: #f89520;
        stroke: #f89520;
      }

      .cls-6 {
        fill: #d5792b;
        stroke: #d5792b;
      }

      .cls-7 {
        fill: #ec2029;
      }

      .cls-9 {
        fill: url(#무제_그라디언트_78);
      }

      .cls-10 {
        stroke-linejoin: round;
        stroke: url(#무제_그라디언트_78-2);
      }

      .cls-11 {
        stroke: #019267;
      }

      .cls-12 {
        fill: #fff;
      }
    </style>
    <linearGradient id="무제_그라디언트_78" data-name="무제 그라디언트 78" x1="56.71" y1="128.15" x2="287.89" y2="128.15" gradientUnits="userSpaceOnUse">
      <stop offset="0" stop-color="#8dc21f"/>
      <stop offset="0" stop-color="#ada224"/>
      <stop offset="0" stop-color="#c78728"/>
      <stop offset="0" stop-color="#da742b"/>
      <stop offset="0" stop-color="#e5692c"/>
      <stop offset="0" stop-color="#e9652d"/>
      <stop offset="0" stop-color="#f0932e"/>
      <stop offset="0" stop-color="#57917e"/>
      <stop offset="0.25" stop-color="#398e6f"/>
      <stop offset="0.46" stop-color="#1f916a"/>
      <stop offset="0.65" stop-color="#1f916a"/>
      <stop offset="0.78" stop-color="#1d916a"/>
      <stop offset="1" stop-color="#019267"/>
    </linearGradient>
    <linearGradient id="무제_그라디언트_78-2" x1="0" y1="47.89" x2="59.24" y2="47.89" xlink:href="#무제_그라디언트_78"/>
  </defs>
  <g id="레이어_2" data-name="레이어 2">
    <g id="레이어_1-2" data-name="레이어 1">
      <g id="옥수수">
        <ellipse class="cls-1" cx="251.21" cy="59.11" rx="52.61" ry="18.9" transform="translate(114.26 277.84) rotate(-71.19)"/>
        <path class="cls-2" d="M211.34,110.21S211.69,92,214,72.86s6.65-39.27,14.57-42.78c0,0,27.91,58,11.17,78.66"/>
        <path class="cls-2" d="M247.47,124.81S292,69.24,282.28,51.22c0,0-61.24,20.56-59.25,49.5"/>
      </g>
      <g id="호박">
        <path class="cls-3" d="M122.67,4s-15.81,9.15-16.08,28.77"/>
        <ellipse class="cls-4" cx="107.9" cy="30.97" rx="22.32" ry="6.75" transform="translate(-3.87 20.53) rotate(-10.68)"/>
        <g>
          <ellipse class="cls-5" cx="82.57" cy="74.46" rx="18.55" ry="35.13" transform="translate(-10.05 12.95) rotate(-8.46)"/>
          <ellipse class="cls-5" cx="144.78" cy="65.06" rx="18.57" ry="36.77" transform="translate(-7.5 20.28) rotate(-7.81)"/>
          <ellipse class="cls-6" cx="112.12" cy="71.1" rx="30.01" ry="40.29" transform="translate(-6.83 12.13) rotate(-6.01)"/>
        </g>
      </g>
      <g id="사과">
        <ellipse class="cls-7" cx="182.67" cy="74.9" rx="35.35" ry="36.84" transform="translate(-14.76 75.36) rotate(-22.43)"/>
        <path class="cls-2" d="M157.52,26.65s18.14-5.35,23,15S157.52,26.65,157.52,26.65Z"/>
        <path class="cls-8" d="M194.29,14.45s-14.9,17.47-6.49,32.49"/>
      </g>
      <path class="cls-9" d="M63.83,75.7H280.77c3.94,0,7.12,3.45,7.12,7.7v78.06a19.42,19.42,0,0,1-15.64,19,6.3,6.3,0,0,1-1.15.09H74a6.54,6.54,0,0,1-1.08-.08,19.38,19.38,0,0,1-16.2-19V83.4C56.71,79.15,59.89,75.7,63.83,75.7Z"/>
      <path class="cls-10" d="M4,24.59s44.94,5.68,51.24,46.59"/>
      <path class="cls-11" d="M340.2,24.59S295.26,30.27,289,71.18"/>
      <g>
        <path class="cls-12" d="M100.85,100.4a19.46,19.46,0,0,1,2.54-.16,5.22,5.22,0,0,1,3.18,1.5,2.18,2.18,0,0,1,.82,1.37,2.63,2.63,0,0,1-.36,1.61,4.76,4.76,0,0,1-1,1.13,3.11,3.11,0,0,1-1.43.33c-.68,0-1.39.06-2.12.06a1.9,1.9,0,0,1-.35-.06c-.63,0-1,.18-1.07.6a28.74,28.74,0,0,0,.24,4.49,8.76,8.76,0,0,1,.15,1c.43,3.71.68,5.92.73,6.62s.13,1.07.42,1.24a2.32,2.32,0,0,0,1.54,0,5.27,5.27,0,0,1,3,.13,2.8,2.8,0,0,0,1,.27c.17,0,.49.21,1,.66a4.59,4.59,0,0,1,.93,1.08,2.1,2.1,0,0,1,.1,1.46,2.67,2.67,0,0,1-.74,1.51c-.26.4-.87.55-1.85.45q-7.83,0-9.17.42a15.06,15.06,0,0,1-1.77.2,16.3,16.3,0,0,0-3,.52,10.33,10.33,0,0,1-2,.21c-.17,0-1.62,0-4.34.07s-4.34,0-4.87-.21c-1.29-.62-2-1.2-2.25-1.73a2.27,2.27,0,0,1-.06-2c.41-.56,1.72-.92,3.93-1.06q2.46-.07,2.61-.42a4.38,4.38,0,0,0-.28-2.82,9.73,9.73,0,0,1-.44-4.94,20.43,20.43,0,0,0-.05-3.16c-.11-1.57-.29-2.45-.53-2.65a3.93,3.93,0,0,0-2.59-.49,5.27,5.27,0,0,1-1.62-.06,9,9,0,0,1-1.34-.89,3.54,3.54,0,0,1-1.11-1.14,2.17,2.17,0,0,1-.14-2c.33-1,1.21-1.4,2.64-1.23,1,.05,2.72,0,5.27-.17a39.88,39.88,0,0,0,8.54-1,12.91,12.91,0,0,1,2-.13,1.91,1.91,0,0,0,1.36-.09A15.93,15.93,0,0,1,100.85,100.4Zm-10.44,33a1.78,1.78,0,0,1,1.26-.25l6.14.18a6.38,6.38,0,0,0,2.37-.24c.56-.09,1.86-.25,3.89-.49s4.43-.34,7.19-.63c2.26-.2,3.7-.3,4.33-.32a4,4,0,0,1,1.73.34,4.18,4.18,0,0,1,1.9,1.66,3.32,3.32,0,0,1,.45,2.66,2.52,2.52,0,0,0,.2,1.69,2.91,2.91,0,0,1,.25,1.74,6.16,6.16,0,0,0,.12,2.23c.17.91.35,1.84.54,2.81a4.75,4.75,0,0,0,.47,1.84,2.41,2.41,0,0,1,.07,2.27c-.81,1.35-2.36,2-4.64,1.84-.85,0-2.46.11-4.83.32a15.63,15.63,0,0,0-4.3.68,4.7,4.7,0,0,1-2.5.16,10.46,10.46,0,0,0-3.69.24,13.84,13.84,0,0,1-3.55.39,18.12,18.12,0,0,1-4.4-.77,4.27,4.27,0,0,1-2-3.61,4.09,4.09,0,0,0-.55-1.76,6,6,0,0,1-.44-2.73,25.43,25.43,0,0,0-.41-4.53,20.58,20.58,0,0,1-.47-4.28A1.72,1.72,0,0,1,90.41,133.45ZM94.84,107c-.07-.1-.49-.13-1.28-.08a6.16,6.16,0,0,0-1.69.27,2.1,2.1,0,0,0-.73.46l-.39.51.26,2.59q1.06,10.26,1.52,10.63c.13.16.61.21,1.46.15a13.8,13.8,0,0,0,1.78-.19c.67-.21.91-.76.73-1.68l-.43-6.07Q95.55,107.26,94.84,107Zm16.88,30.23q-4.86.06-6.12.23a24.15,24.15,0,0,1-3.46.55q-5.31.75-5.63,1.09a5.1,5.1,0,0,0-.22,2.21,15.07,15.07,0,0,0,.37,3.47c.14,1.24.42,2,.84,2.23a1.7,1.7,0,0,0,1.59.22,17.76,17.76,0,0,1,2.41-.32c5.25-.44,8.54-.82,9.88-1.12a7.11,7.11,0,0,1,2.24-.27c.72,0,1.12-.08,1.21-.36a1.85,1.85,0,0,0,.17-1.31c-.08-.32-.25-1.13-.51-2.41a7.49,7.49,0,0,1-.27-2.5c-.06-.87-.21-1.37-.45-1.52A5.08,5.08,0,0,0,111.72,137.2Zm.3-37.84a2.57,2.57,0,0,1,2.71-.26,5.72,5.72,0,0,1,2.14,1.33,49.68,49.68,0,0,1,.83,6.94c.12,1.67.49,2.54,1.12,2.61a25.88,25.88,0,0,0,2.85-.06,13.11,13.11,0,0,1,3.46.14,4.11,4.11,0,0,1,2.33,1.64c.39.68.14,1.48-.76,2.41l-.55.69-3.56.23a22.9,22.9,0,0,0-3.19.12.91.91,0,0,0-.69.45,31.47,31.47,0,0,0,.27,5.07c.28,3.2.34,5,.17,5.35a2.14,2.14,0,0,1-.92.92c-.82.37-1.9,0-3.22-1a5.57,5.57,0,0,1-1.32-1.78,33.79,33.79,0,0,1-.87-7.43l-.14-2c-.61-7-1-11-1.29-12.2C111.12,101,111.33,100,112,99.36Z"/>
        <path class="cls-12" d="M141.38,118.39a10.61,10.61,0,0,1,3.4-.06,5.61,5.61,0,0,1,2.67.87l.66.29a7.14,7.14,0,0,1,2,2c.16.27.42.7.76,1.3a5,5,0,0,1,.52,1,.48.48,0,0,0,.18.32,5.09,5.09,0,0,1,.42,1.3,8.47,8.47,0,0,1,.31,1.59,2.2,2.2,0,0,1-.25.87,4.38,4.38,0,0,0-.18,1.39,3.11,3.11,0,0,1-.3,1.48,2.47,2.47,0,0,0-.3.66,2.76,2.76,0,0,1-.25.64q-.18.34-.42.87a8.09,8.09,0,0,1-1.94,2.54,5.91,5.91,0,0,1-2.3,1.51,6.3,6.3,0,0,1-2.31.35,7.94,7.94,0,0,1-1.82-.12,2.91,2.91,0,0,0-1-.41,8.36,8.36,0,0,1-2.73-1,10.21,10.21,0,0,1-3.39-3.53,3.71,3.71,0,0,0-.43-1,6.08,6.08,0,0,1-.42-2.55,9,9,0,0,1,.49-4,1.11,1.11,0,0,0,.24-.58,4.79,4.79,0,0,1,.85-1.91s.1-.08.18-.23a.89.89,0,0,0,.12-.35,4,4,0,0,1,1-1,11.65,11.65,0,0,1,1.58-1.16,1.13,1.13,0,0,1,.3-.17l.48-.23.37-.18A9,9,0,0,1,141.38,118.39Zm3.7,3.53-.85-.17s-.38.07-1,.23a2.68,2.68,0,0,0-1.15.4,1.78,1.78,0,0,1-.61.29A4.74,4.74,0,0,0,139.9,124c-.63.69-.94,1.19-.94,1.5a5.53,5.53,0,0,1-.3,1.16,4.94,4.94,0,0,0-.25,2.37,5.11,5.11,0,0,0,.18,1.85,3.66,3.66,0,0,1,.31.58,2.15,2.15,0,0,0,.94,1,4.74,4.74,0,0,0,1.48.76,9,9,0,0,0,2.43.17,3.25,3.25,0,0,1,.85-.23,2.9,2.9,0,0,0,1.21-.93c1-1,1.51-1.71,1.51-2a2.48,2.48,0,0,1,.31-.76,4.93,4.93,0,0,0,.36-2,7.27,7.27,0,0,0-.54-3.3,3.5,3.5,0,0,0-.49-1A4.24,4.24,0,0,0,145.08,121.92Zm-4,18.81a2,2,0,0,1,1.18-.12,2.16,2.16,0,0,1,1.18.58,3,3,0,0,1,.82.84,2.86,2.86,0,0,1,.22,1.3,17.58,17.58,0,0,0,.3,1.91,7.36,7.36,0,0,1,.24,2.2,6.69,6.69,0,0,0,.09,1.42.76.76,0,0,0,.46.49,48.79,48.79,0,0,0,6.57.09q6.29-.09,6.64-.2a15.84,15.84,0,0,1,3.58-.23l3.21-.06.49.29c1.17.73,1.41,1.58.73,2.54a1.93,1.93,0,0,1-1,.84,13.8,13.8,0,0,1-2.7.15,13.83,13.83,0,0,0-3,.17,5,5,0,0,1-1.34.12c-.56,0-1.86,0-3.88.05a33.65,33.65,0,0,1-3.57.12,25.25,25.25,0,0,0-4.07-.12h-3.27l-.73-.29a6.08,6.08,0,0,1-1.09-.63c-.69-.81-1-2.22-1-4.23a25.94,25.94,0,0,0-.61-5.21,2.29,2.29,0,0,1,.06-1.44A1.72,1.72,0,0,1,141.08,140.73Zm14.58-22a1.36,1.36,0,0,1,.46-.38,2,2,0,0,1,.91,0,4.69,4.69,0,0,1,1,.21,1.88,1.88,0,0,1,.78.63,1.34,1.34,0,0,1,.37.7V123q0,2.9.06,3.24c.12.46.83.62,2.12.46a2.77,2.77,0,0,0,1.21-.28,10.93,10.93,0,0,0,.18-3c0-2.36.16-3.61.49-3.77a1.69,1.69,0,0,1,1-.17,2.08,2.08,0,0,1,1.27.41,4,4,0,0,1,1.15,1.44q.06.3,0,8.8t-.09,8.68c-.28.62-.62.93-1,.93a3.52,3.52,0,0,1-1.18-.06,2.43,2.43,0,0,1-.82-.64,2.64,2.64,0,0,1-.82-1.45,18.77,18.77,0,0,1-.09-3.18c0-2.12,0-3.26-.24-3.41a7,7,0,0,0-1.61-.12,3,3,0,0,0-1.48.23c-.2.2-.12,1.58.24,4.17.16,1.16.24,1.83.24,2a2.19,2.19,0,0,1-.39,1.09,2,2,0,0,1-.76.81A1.8,1.8,0,0,1,157,139a3.65,3.65,0,0,1-1.42-1.53,17.86,17.86,0,0,1-.3-4.05c0-2.66,0-5.83.06-9.49A28.54,28.54,0,0,1,155.66,118.71Z"/>
        <path class="cls-12" d="M199.19,99a19.79,19.79,0,0,1,2.64-.2,5.4,5.4,0,0,1,3.31,1.53,2.25,2.25,0,0,1,.87,1.41,2.86,2.86,0,0,1-.35,1.68,5.12,5.12,0,0,1-1.06,1.17,3.28,3.28,0,0,1-1.47.37c-.71,0-1.45.08-2.21.08a2.11,2.11,0,0,1-.36-.06c-.65,0-1,.2-1.1.63a28.9,28.9,0,0,0,.29,4.67,6.43,6.43,0,0,1,.17,1q.74,5.78.83,6.87c0,.67.15,1.1.46,1.27a2.36,2.36,0,0,0,1.59,0,5.44,5.44,0,0,1,3.11.11,2.65,2.65,0,0,0,1,.26c.18,0,.52.22,1,.69a4.87,4.87,0,0,1,1,1.11,2.2,2.2,0,0,1,.12,1.51,2.74,2.74,0,0,1-.76,1.58c-.26.41-.89.57-1.9.48q-8.15.09-9.52.54c-.52.09-1.14.16-1.84.22a18.11,18.11,0,0,0-3,.56,9.25,9.25,0,0,1-2.11.24c-.18,0-1.68,0-4.5.13s-4.51.06-5.07-.18c-1.34-.63-2.13-1.22-2.35-1.77a2.37,2.37,0,0,1-.09-2.1c.43-.6,1.78-1,4.07-1.15,1.71-.07,2.61-.22,2.71-.46.25-.52.14-1.5-.33-2.93a10.11,10.11,0,0,1-.5-5.12,22.18,22.18,0,0,0-.09-3.29c-.14-1.62-.33-2.53-.58-2.74a4.15,4.15,0,0,0-2.7-.48,5.52,5.52,0,0,1-1.68,0,9.86,9.86,0,0,1-1.4-.91,3.54,3.54,0,0,1-1.16-1.18,2.2,2.2,0,0,1-.17-2.1c.32-1,1.23-1.47,2.72-1.3,1,0,2.83,0,5.47-.24a41.06,41.06,0,0,0,8.85-1.08,13.26,13.26,0,0,1,2.12-.16,2,2,0,0,0,1.4-.1A15.63,15.63,0,0,1,199.19,99Zm-10.48,34.41a1.88,1.88,0,0,1,1.31-.27l6.38.12a6.51,6.51,0,0,0,2.46-.27c.58-.1,1.92-.28,4-.55s4.6-.4,7.46-.72c2.34-.23,3.84-.36,4.49-.38a4.11,4.11,0,0,1,1.79.33,4.35,4.35,0,0,1,2,1.71,3.42,3.42,0,0,1,.49,2.76,2.68,2.68,0,0,0,.24,1.75,3.06,3.06,0,0,1,.27,1.8,6.52,6.52,0,0,0,.15,2.31c.19,1,.39,1.92.59,2.92a5,5,0,0,0,.51,1.9,2.52,2.52,0,0,1,.1,2.36c-.83,1.41-2.43,2.07-4.79,2-.89,0-2.56.14-5,.38a16.61,16.61,0,0,0-4.45.75,4.88,4.88,0,0,1-2.6.19,11,11,0,0,0-3.83.29,14.06,14.06,0,0,1-3.68.44,18.77,18.77,0,0,1-4.58-.76,4.41,4.41,0,0,1-2.16-3.73,4.33,4.33,0,0,0-.59-1.81,6.29,6.29,0,0,1-.5-2.84,25,25,0,0,0-.47-4.7,21.66,21.66,0,0,1-.54-4.44A1.84,1.84,0,0,1,188.71,133.45ZM193,105.92c-.07-.11-.51-.13-1.33-.07a6.78,6.78,0,0,0-1.75.29,2.23,2.23,0,0,0-.76.48l-.4.54.31,2.68q1.22,10.65,1.7,11c.13.16.63.21,1.51.14a13,13,0,0,0,1.84-.22q1-.33.75-1.74l-.52-6.3C194,108.38,193.51,106.11,193,105.92Zm17.86,31.21c-3.36.08-5.47.18-6.35.3a23.73,23.73,0,0,1-3.58.6c-3.67.56-5.62,1-5.83,1.2a5.12,5.12,0,0,0-.22,2.29,16.09,16.09,0,0,0,.43,3.61c.16,1.28.46,2.05.9,2.3a1.78,1.78,0,0,0,1.65.21,17.31,17.31,0,0,1,2.5-.35q8.16-.78,10.25-1.27a7.37,7.37,0,0,1,2.32-.3c.74,0,1.16-.1,1.25-.39a1.94,1.94,0,0,0,.16-1.36c-.09-.34-.27-1.17-.56-2.5a8.17,8.17,0,0,1-.3-2.59c-.07-.9-.23-1.42-.48-1.57A5,5,0,0,0,210.88,137.13Zm-.1-39.29a2.63,2.63,0,0,1,2.8-.3,6,6,0,0,1,2.24,1.36,51,51,0,0,1,.94,7.2c.14,1.73.54,2.63,1.19,2.7a25.18,25.18,0,0,0,3-.1,13.13,13.13,0,0,1,3.6.12,4.27,4.27,0,0,1,2.44,1.67c.41.71.15,1.54-.77,2.51l-.56.72-3.7.28a23.4,23.4,0,0,0-3.31.16.9.9,0,0,0-.71.47,31.33,31.33,0,0,0,.34,5.26q.49,5,.23,5.56a2.22,2.22,0,0,1-.94,1q-1.28.6-3.36-1a5.78,5.78,0,0,1-1.39-1.84,35.35,35.35,0,0,1-1-7.7l-.17-2.1q-1.06-10.83-1.47-12.66C209.85,99.54,210.06,98.45,210.78,97.84Z"/>
        <path class="cls-12" d="M253.94,142.17a15.64,15.64,0,0,1,3.41.11c1.81.23,3.08.35,3.8.36s2.44.1,5.15.26a22.62,22.62,0,0,1,4.32.48,5.71,5.71,0,0,1,1.89,1.49,2.74,2.74,0,0,1,.74,1.73,2.8,2.8,0,0,1-1.66,2.22,4.63,4.63,0,0,1-3.24.34A83.94,83.94,0,0,0,251,147.78c-5.12.11-8.2,0-9.26-.28a5.74,5.74,0,0,0-2.64-.07,13.74,13.74,0,0,1-3.87-.23c-1.69-.28-2.69-.42-3-.44a4.38,4.38,0,0,1-3.05-1.83,2.31,2.31,0,0,1-.24-2.82,1.63,1.63,0,0,1,1.32-.77c.61-.05,2.48,0,5.62.2Q251.46,142.65,253.94,142.17Zm-3.34-40.35a2.66,2.66,0,0,1,1.93-.51,3.55,3.55,0,0,1,2.73,1.67,1.83,1.83,0,0,1,.41,1,4.24,4.24,0,0,1-.56,1.35,10.78,10.78,0,0,1-1.06,1.62,6.84,6.84,0,0,1-.65,1.39,1.61,1.61,0,0,0-.43.78,3.52,3.52,0,0,0,1.35,2.48,13.22,13.22,0,0,0,1.59,1.78c.71.7,1.63,1.58,2.76,2.66q.29,0,1.26,1a6.37,6.37,0,0,0,1.35,1,5.51,5.51,0,0,1,1,.45c.58.3,1.17.65,1.78,1a7.54,7.54,0,0,1,1.26,1c1.07,1.07,1.38,2.13.93,3.17a3.37,3.37,0,0,1-1.51,1.42,4.08,4.08,0,0,1-1.31.41,4,4,0,0,1-1.53-.49,23.33,23.33,0,0,1-4.15-3.18c-.48-.39-1-.8-1.52-1.25a27.34,27.34,0,0,1-5.39-4.59c-1.18-1.26-2-1.48-2.41-.68a12.69,12.69,0,0,1-1.12,1.18c-.41.51-1,1.37-1.87,2.56a25.26,25.26,0,0,1-2.28,3,15.31,15.31,0,0,0-1.56,2.23,12.13,12.13,0,0,1-1.64,1.86,2.7,2.7,0,0,1-1.74.61,3.12,3.12,0,0,1-2.63-1.85,5.86,5.86,0,0,1-.43-2.12,4.13,4.13,0,0,1,1.08-2,3.17,3.17,0,0,0,.84-1.28,5.89,5.89,0,0,1,1.24-1.53,14.81,14.81,0,0,0,2-2.37,16.83,16.83,0,0,1,2.58-3.14c.33-.28.5-.49.51-.64A2,2,0,0,1,244,111c2.77-2.92,4.39-5,4.84-6.12a2.27,2.27,0,0,1,.74-1.11,7.06,7.06,0,0,1,.43-.87A3.7,3.7,0,0,1,250.6,101.82Z"/>
      </g>
    </g>
  </g>
</svg>
